<svg width="24" height="24" viewBox="0 0 24 24" fill="none" xmlns="http://www.w3.org/2000/svg">
<circle cx="12" cy="12" r="12" fill="white"/>
<path fill-rule="evenodd" clip-rule="evenodd" d="M9.47363 6.94701C9.47363 6.5982 9.73465 6.31543 10.0566 6.31543H13.9433C14.2652 6.31543 14.5263 6.5982 14.5263 6.94701C14.5263 7.29582 14.2652 7.57859 13.9433 7.57859H10.0566C9.73465 7.57859 9.47363 7.29582 9.47363 6.94701Z" fill="#1C274C"/>
<path fill-rule="evenodd" clip-rule="evenodd" d="M10.5969 17.6836H13.4039C15.3751 17.6836 16.3607 17.6836 17.0687 17.2275C17.3751 17.03 17.6383 16.7762 17.8431 16.4807C18.3161 15.7979 18.3161 14.8475 18.3161 12.9467C18.3161 11.0459 18.316 10.0957 17.843 9.41295C17.6382 9.11739 17.375 8.86363 17.0685 8.66614C16.3605 8.20996 15.375 8.20996 13.4038 8.20996H10.5967C8.62557 8.20996 7.63998 8.20996 6.93199 8.66614C6.62549 8.86363 6.36233 9.11739 6.15753 9.41295C5.68457 10.0955 5.68457 11.0455 5.68457 12.9455V12.9467C5.68457 14.8475 5.68457 15.7979 6.15764 16.4807C6.36243 16.7762 6.62559 17.03 6.93209 17.2275C7.64009 17.6836 8.62568 17.6836 10.5969 17.6836ZM9.36878 12.9467C9.36878 11.5452 10.547 10.4091 12.0004 10.4091C13.4537 10.4091 14.632 11.5452 14.632 12.9467C14.632 14.3482 13.4537 15.4844 12.0004 15.4844C10.547 15.4844 9.36878 14.3482 9.36878 12.9467ZM10.4214 12.9467C10.4214 12.1059 11.1283 11.4241 12.0004 11.4241C12.8724 11.4241 13.5793 12.1059 13.5793 12.9467C13.5793 13.7876 12.8724 14.4693 12.0004 14.4693C11.1283 14.4693 10.4214 13.7876 10.4214 12.9467ZM15.86 10.4091C15.5693 10.4091 15.3337 10.6363 15.3337 10.9166C15.3337 11.197 15.5693 11.4241 15.86 11.4241H16.2109C16.5016 11.4241 16.7372 11.197 16.7372 10.9166C16.7372 10.6363 16.5016 10.4091 16.2109 10.4091H15.86Z" fill="#1C274C"/>
</svg>
