<svg width="24" height="24" viewBox="0 0 24 24" fill="none" xmlns="http://www.w3.org/2000/svg">
<path d="M6.47554 3.19789C8.09585 2.22735 9.94907 1.71445 11.8378 1.71387C13.4093 1.71294 14.9607 2.06672 16.3764 2.74883C17.792 3.43095 19.0356 4.42379 20.0141 5.65338C20.9926 6.88295 21.681 8.31756 22.028 9.85023C22.375 11.3829 22.3716 12.9741 22.0179 14.5053C21.6642 16.0364 20.9696 17.468 19.9856 18.6934C19.0018 19.9186 17.754 20.906 16.3353 21.5819C14.9166 22.2579 13.3637 22.6048 11.7923 22.5971C10.4807 22.5906 9.1845 22.3371 7.97077 21.8523L2.26361 22.8027C1.62594 22.9088 1.10471 22.2978 1.31008 21.6848L2.77007 17.3272C1.95682 15.9007 1.4897 14.2994 1.41123 12.6525C1.32134 10.7659 1.74486 8.89021 2.63669 7.22526C3.52849 5.56032 4.85521 4.16845 6.47554 3.19789Z" fill="white" stroke="white" stroke-width="1.5" stroke-linecap="round" stroke-linejoin="round"/>
</svg>
