<svg width="16" height="16" viewBox="0 0 16 16" fill="none" xmlns="http://www.w3.org/2000/svg">
<g clip-path="url(#clip0_0_323)">
<path d="M3.66575 1.15856C5.15445 0.98986 6.78762 0.857422 8.28575 0.857422C9.78403 0.857422 11.4185 0.989886 12.9079 1.15862C13.9333 1.27477 14.7381 2.08691 14.8499 3.1127C15.0111 4.59363 15.1429 6.22514 15.1429 7.71456C15.1429 9.20437 15.0111 10.839 14.8497 12.3218C14.7381 13.3476 13.9333 14.1597 12.9078 14.2748C11.4184 14.442 9.78399 14.5717 8.28575 14.5717C6.97915 14.5717 5.56985 14.4731 4.24325 14.337L0.857178 15.1431L1.64195 11.5332C1.51921 10.2728 1.42865 8.94436 1.42865 7.71456C1.42865 6.22511 1.56147 4.59359 1.72343 3.11266C1.83559 2.08691 2.64045 1.27476 3.66575 1.15856Z" stroke="#3A3939" stroke-width="1.5" stroke-linejoin="round"/>
<path d="M5.5 6.28613H11.0714" stroke="#3A3939" stroke-width="1.5" stroke-linecap="round" stroke-linejoin="round"/>
<path d="M5.5 9.71387H9.71429" stroke="#3A3939" stroke-width="1.5" stroke-linecap="round" stroke-linejoin="round"/>
</g>
<defs>
<clipPath id="clip0_0_323">
<rect width="16" height="16" fill="white"/>
</clipPath>
</defs>
</svg>
