<svg width="19" height="16" viewBox="0 0 19 16" fill="none" xmlns="http://www.w3.org/2000/svg">
<path d="M18.9535 2.22541C18.8745 1.82634 18.6964 1.44916 18.4367 1.13206C18.3839 1.06549 18.3287 1.00626 18.2684 0.94618C17.8062 0.48157 17.1633 0.215088 16.5045 0.215088H2.49538C1.82923 0.215088 1.20271 0.474854 0.73124 0.94644C0.671568 1.00596 0.616238 1.06578 0.561465 1.13447C0.302813 1.45024 0.125541 1.8269 0.0484648 2.22653C0.0162539 2.38346 0 2.54608 0 2.71058V12.5497C0 12.8919 0.069543 13.2253 0.207404 13.5421C0.326711 13.8235 0.50773 14.0903 0.731092 14.3136M18.9535 2.22541L18.8959 2.23658C18.8959 2.23659 18.8959 2.23661 18.896 2.23662M18.9535 2.22541L18.896 2.23679C18.896 2.23673 18.896 2.23668 18.896 2.23662M18.9535 2.22541L18.7264 13.5527L18.7419 13.5153L18.7423 13.5145C18.8743 13.2111 18.9414 12.8868 18.9414 12.5497V2.71058C18.9414 2.55197 18.9261 2.39203 18.896 2.23662M18.896 2.23662C18.8188 1.84711 18.645 1.47883 18.3914 1.16919L18.3908 1.16846C18.3399 1.10426 18.2864 1.04679 18.227 0.987701L18.2268 0.987503C17.7757 0.534013 17.1478 0.273682 16.5045 0.273682H2.49538C1.8448 0.273682 1.23318 0.527257 0.772677 0.987867L0.772621 0.987923C0.714079 1.04632 0.660329 1.10447 0.607277 1.171L0.606797 1.17161L0.606793 1.1716C0.35426 1.47989 0.181217 1.84762 0.105998 2.23762L0.105866 2.23831L0.105862 2.23831C0.0744698 2.39125 0.0585938 2.54992 0.0585938 2.71058V12.5497C0.0585938 12.8838 0.126457 13.2092 0.261133 13.5188L0.261352 13.5193C0.377622 13.7935 0.554311 14.054 0.772513 14.2721M0.772513 14.2721C0.772485 14.2721 0.772456 14.2721 0.772428 14.272L0.731092 14.3136M0.772513 14.2721L0.731092 14.3136M0.772513 14.2721C0.827667 14.327 0.882286 14.3775 0.940502 14.4266M0.731092 14.3136C0.78735 14.3696 0.843236 14.4212 0.902908 14.4716M0.902908 14.4716L0.940281 14.4265C0.940354 14.4265 0.940428 14.4266 0.940502 14.4266M0.902908 14.4716C1.34948 14.8414 1.91496 15.0449 2.49538 15.0449H16.5045C17.0887 15.0449 17.6536 14.8406 18.099 14.4675C18.1585 14.4193 18.2137 14.3688 18.2689 14.3136C18.4848 14.0979 18.6564 13.8501 18.7798 13.5768L18.7257 13.5542L18.726 13.5535C18.6056 13.8199 18.4382 14.0616 18.2275 14.2721L18.2275 14.2721C18.1735 14.3261 18.1198 14.3753 18.0622 14.4219L18.0614 14.4226C17.6266 14.7868 17.0751 14.9863 16.5045 14.9863H2.49538C1.92867 14.9863 1.37651 14.7876 0.940502 14.4266M0.902908 14.4716L0.940697 14.4268C0.940632 14.4267 0.940567 14.4267 0.940502 14.4266M1.38849 1.60379L1.38866 1.60362C1.68494 1.3075 2.07822 1.14435 2.49535 1.14435H16.5045C16.925 1.14435 17.3186 1.30768 17.6119 1.60441C17.6119 1.60441 17.6119 1.60442 17.6119 1.60443L17.5702 1.64562C17.619 1.69486 17.6655 1.74952 17.7061 1.80415L1.38849 1.60379ZM1.38849 1.60379C1.32927 1.66347 1.28171 1.71925 1.24388 1.77462L1.14625 1.91682L1.11671 1.95984L1.15604 1.99415L8.62612 8.50955L8.62626 8.50968C8.87009 8.72092 9.18022 8.83704 9.49989 8.83704C9.82245 8.83704 10.133 8.72075 10.3743 8.50925C10.3743 8.50923 10.3743 8.50921 10.3743 8.50919L17.8517 1.9923L17.8926 1.95667L17.8603 1.91316L17.7531 1.7692M1.38849 1.60379L17.7531 1.7692M17.7531 1.7692C17.7531 1.76919 17.7531 1.76918 17.7531 1.76917L17.7531 1.7692ZM0.934924 12.6453L0.934949 12.6454L0.988535 12.9937L1.00472 13.0989L1.08495 13.0289L6.82919 8.0206L6.87983 7.97645L6.8292 7.93229L1.02641 2.87016L0.929295 2.78544V2.91431V12.5497C0.929295 12.5807 0.930203 12.614 0.934924 12.6453ZM17.2814 13.9092L17.2814 13.9091L17.5163 13.7733L17.5873 13.7323L17.5255 13.6784L11.5924 8.50562L11.5539 8.47207L11.5154 8.50559L10.8653 9.07158C10.486 9.40108 10.0012 9.58268 9.49996 9.58268C9.00063 9.58268 8.51668 9.40112 8.13709 9.07156L7.48668 8.50583L7.44819 8.47235L7.40973 8.50587L1.4746 13.6781L1.41287 13.7319L1.48371 13.773L1.71854 13.9091L1.71863 13.9092C1.95214 14.044 2.22081 14.1153 2.49538 14.1153H16.5045C16.779 14.1153 17.0477 14.044 17.2814 13.9092ZM18.0655 12.6436L18.0656 12.6434C18.0699 12.6127 18.0704 12.5795 18.0704 12.5497V2.91676V2.78788L17.9733 2.87261L12.1709 7.935L12.1203 7.97918L12.1709 8.02332L17.9176 13.0308L17.9985 13.1013L18.0141 12.9951L18.0655 12.6436Z" fill="#3A81F7" stroke="#3A81F7" stroke-width="0.117188"/>
</svg>
