<svg width="18" height="18" viewBox="0 0 18 18" fill="none" xmlns="http://www.w3.org/2000/svg">
<path d="M8.96629 4.18079C10.1933 4.16162 11.3801 4.61845 12.2775 5.4554L14.6934 3.09268C13.143 1.6399 11.0908 0.84325 8.96629 0.869526C7.37888 0.869121 5.82266 1.3103 4.47164 2.14373C3.12062 2.97715 2.02807 4.16997 1.31617 5.58879L4.08523 7.73907C4.42394 6.70966 5.0772 5.81252 5.95291 5.17413C6.82862 4.53574 7.88261 4.1883 8.96629 4.18079Z" fill="#EA4335"/>
<path d="M17.1858 9.62219C17.1961 9.03369 17.1356 8.44609 17.0054 7.87207H8.96504V11.0499H13.6843C13.5942 11.6074 13.3923 12.1408 13.0907 12.6182C12.7891 13.0956 12.394 13.507 11.9292 13.8277L14.6353 15.9211C15.4771 15.1078 16.139 14.127 16.5783 13.042C17.0176 11.9571 17.2246 10.7921 17.1858 9.62219Z" fill="#4285F4"/>
<path d="M4.09384 11.1265C3.90683 10.5815 3.81045 10.0094 3.80854 9.4332C3.81186 8.85789 3.90478 8.2866 4.08396 7.7399L1.31614 5.58838C0.715516 6.78082 0.402661 8.09741 0.402661 9.43258C0.402661 10.7677 0.715516 12.0843 1.31614 13.2768L4.09384 11.1265Z" fill="#FBBC05"/>
<path d="M8.96499 17.9965C11.0507 18.0555 13.0797 17.3134 14.6353 15.9228L11.9341 13.8293C11.0591 14.416 10.023 14.7152 8.96993 14.6852C7.88632 14.6799 6.83195 14.3332 5.95661 13.6944C5.08127 13.0556 4.42948 12.1573 4.09381 11.127L1.32475 13.2772C2.03454 14.6956 3.12524 15.8884 4.47465 16.7219C5.82407 17.5554 7.3789 17.9968 8.96499 17.9965Z" fill="#34A853"/>
</svg>
