<svg width="25" height="24" viewBox="0 0 25 24" fill="none" xmlns="http://www.w3.org/2000/svg">
<path d="M20.165 6.82L14.405 2.79C12.835 1.69 10.425 1.75 8.91499 2.92L3.90499 6.83C2.90499 7.61 2.11499 9.21 2.11499 10.47V17.37C2.11499 19.92 4.18499 22 6.73499 22H17.515C20.065 22 22.135 19.93 22.135 17.38V10.6C22.135 9.25 21.265 7.59 20.165 6.82ZM12.875 18C12.875 18.41 12.535 18.75 12.125 18.75C11.715 18.75 11.375 18.41 11.375 18V15C11.375 14.59 11.715 14.25 12.125 14.25C12.535 14.25 12.875 14.59 12.875 15V18Z" fill="white"/>
</svg>
