<svg width="20" height="20" viewBox="0 0 20 20" fill="none" xmlns="http://www.w3.org/2000/svg">
<path d="M10.1333 9.05835C10.05 9.05002 9.94999 9.05002 9.85832 9.05835C7.87499 8.99169 6.29999 7.36669 6.29999 5.36669C6.29999 3.32502 7.94999 1.66669 9.99999 1.66669C12.0417 1.66669 13.7 3.32502 13.7 5.36669C13.6917 7.36669 12.1167 8.99169 10.1333 9.05835Z" stroke="#9CA3AF" stroke-width="1.5" stroke-linecap="round" stroke-linejoin="round"/>
<path d="M5.96666 12.1333C3.95 13.4833 3.95 15.6833 5.96666 17.025C8.25833 18.5583 12.0167 18.5583 14.3083 17.025C16.325 15.675 16.325 13.475 14.3083 12.1333C12.025 10.6083 8.26666 10.6083 5.96666 12.1333Z" stroke="#9CA3AF" stroke-width="1.5" stroke-linecap="round" stroke-linejoin="round"/>
</svg>
