<svg width="14" height="14" viewBox="0 0 14 14" fill="none" xmlns="http://www.w3.org/2000/svg">
<g clip-path="url(#clip0_0_373)">
<path d="M1.18233 11.8865C1.23387 12.3667 1.61486 12.7474 2.09496 12.7999C3.66389 12.9714 5.30725 13.2071 7.00003 13.2071C8.69281 13.2071 10.3362 12.9714 11.9051 12.7999C12.3852 12.7474 12.7662 12.3667 12.8177 11.8865C12.9855 10.3233 13.2076 8.68605 13.2076 6.99954C13.2076 5.31303 12.9855 3.67573 12.8177 2.11253C12.7662 1.63233 12.3852 1.25166 11.9051 1.19917C10.3362 1.02765 8.69281 0.791992 7.00003 0.791992C5.30725 0.791992 3.66389 1.02765 2.09496 1.19917C1.61486 1.25166 1.23387 1.63233 1.18233 2.11253C1.01454 3.67573 0.79248 5.31303 0.79248 6.99954C0.79248 8.68605 1.01454 10.3233 1.18233 11.8865Z" stroke="black" stroke-width="1.5"/>
<path d="M4.85278 6.99976C4.85278 7.56254 4.94909 8.37113 5.04178 9.01908C5.12416 9.59496 5.6933 9.96423 6.24139 9.76923C7.55751 9.30096 8.78447 8.58112 9.62879 7.50098C9.85949 7.20585 9.8595 6.79366 9.62882 6.49852C8.78457 5.41836 7.55757 4.69853 6.24145 4.23029C5.69338 4.0353 5.12427 4.40453 5.04185 4.98039C4.94913 5.62834 4.85278 6.43697 4.85278 6.99976Z" stroke="black" stroke-width="1.5" stroke-linecap="round" stroke-linejoin="round"/>
</g>
<defs>
<clipPath id="clip0_0_373">
<rect width="14" height="14" fill="white"/>
</clipPath>
</defs>
</svg>
