<svg width="16" height="16" viewBox="0 0 16 16" fill="none" xmlns="http://www.w3.org/2000/svg">
<path fill-rule="evenodd" clip-rule="evenodd" d="M12.0256 0.292506C11.5737 0.332448 11.1938 0.441786 10.8302 0.636544C10.5539 0.784596 10.3545 0.930912 10.1322 1.14888C9.74931 1.52429 9.48501 1.96867 9.33831 2.48367C9.26679 2.73473 9.23596 2.95234 9.23074 3.24281L9.22717 3.44195L8.90638 3.53312C8.03425 3.78099 7.69036 3.88698 7.2956 4.02961C6.6629 4.25821 6.14179 4.50913 5.13278 5.07101L4.89278 5.20466L4.86398 5.1938C4.60446 5.09594 4.38232 5.03941 4.13758 5.00894C3.78905 4.96554 3.41137 4.98405 3.08478 5.06053C2.55821 5.18384 2.09209 5.4318 1.70106 5.7966C1.29912 6.17158 1.01038 6.64362 0.85796 7.17487C0.690094 7.75998 0.706555 8.39619 0.904584 8.97647C0.983675 9.20823 1.10766 9.45992 1.24348 9.66447C1.58252 10.1751 2.06916 10.5721 2.63358 10.7985C2.99487 10.9435 3.36311 11.0146 3.7539 11.0148C4.14359 11.015 4.47914 10.9523 4.86398 10.8071L4.89278 10.7963L5.13278 10.9299C6.35198 11.6089 6.89657 11.8558 7.81941 12.148C8.03919 12.2176 8.37453 12.3164 8.86158 12.455L9.22717 12.5591L9.23074 12.7582C9.23433 12.9579 9.24076 13.0347 9.26775 13.2005C9.3473 13.689 9.55845 14.166 9.87119 14.5637C9.97392 14.6943 10.1471 14.8757 10.272 14.9835C10.6883 15.3428 11.1997 15.5831 11.7408 15.6735C11.9272 15.7047 11.9919 15.7092 12.2432 15.7092C12.5004 15.7091 12.5681 15.704 12.7616 15.6703C13.5696 15.5296 14.2913 15.0589 14.7497 14.3736C15.2232 13.6658 15.3744 12.7869 15.1649 11.9597C15.0535 11.5199 14.853 11.1268 14.5554 10.7653C14.4842 10.6787 14.2626 10.4571 14.176 10.3858C13.5195 9.84551 12.7099 9.60653 11.8752 9.70664C10.9792 9.8141 10.1745 10.3251 9.68869 11.0949C9.62853 11.1902 9.56732 11.3004 9.52958 11.3813C9.51374 11.4153 9.49838 11.4432 9.49544 11.4434C9.48857 11.4438 8.8984 11.2759 8.62718 11.1965C7.56365 10.8849 7.09537 10.6929 6.136 10.1752C6.03833 10.1224 5.95725 10.0774 5.95583 10.0751C5.9544 10.0728 5.98341 10.0364 6.02028 9.99416C6.20796 9.77946 6.34871 9.56761 6.47107 9.31567C6.62108 9.00681 6.71291 8.69135 6.7561 8.33647C6.77294 8.19818 6.77294 7.80277 6.7561 7.66447C6.71291 7.3096 6.62108 6.99414 6.47107 6.68527C6.34854 6.433 6.20698 6.22002 6.02011 6.00678C5.96919 5.94869 5.95471 5.92833 5.96043 5.92287C5.97484 5.90912 6.40436 5.68092 6.62718 5.56863C7.27441 5.24248 7.72312 5.06998 8.57598 4.81948C8.85254 4.73825 9.48816 4.55718 9.49539 4.55756C9.49835 4.55772 9.51374 4.58563 9.52958 4.6196C9.71534 5.01792 10.0495 5.42447 10.4227 5.70618C10.9996 6.14166 11.7125 6.35679 12.4257 6.31066C13.0477 6.27042 13.6238 6.05125 14.1056 5.67155C14.2828 5.53188 14.4736 5.34112 14.6119 5.16527C15.1086 4.534 15.3309 3.73777 15.2346 2.93487C15.1128 1.9195 14.4724 1.02699 13.5473 0.583284C13.244 0.437837 12.9265 0.345927 12.5824 0.304C12.5 0.293965 12.102 0.285748 12.0256 0.292506ZM12.1632 1.43162C11.7733 1.45235 11.424 1.57715 11.1181 1.80502C11.0081 1.88692 10.8272 2.06781 10.7453 2.17777C10.3865 2.65957 10.2794 3.26774 10.4515 3.84687C10.4758 3.92876 10.5252 4.05199 10.5681 4.13807C10.8091 4.62079 11.2558 4.98115 11.777 5.11331C11.948 5.15667 12.047 5.1683 12.2432 5.16808C12.4234 5.16788 12.4929 5.16117 12.6368 5.13011C12.9084 5.07145 13.168 4.94988 13.3952 4.7749C13.4753 4.71319 13.6613 4.52584 13.7225 4.44527C13.9135 4.19356 14.0345 3.91742 14.086 3.61553C14.1236 3.39521 14.119 3.13942 14.0733 2.9191C13.9682 2.41203 13.6524 1.9673 13.2064 1.69836C12.9798 1.56174 12.7191 1.47251 12.464 1.44424C12.3758 1.43446 12.2271 1.42823 12.1632 1.43162ZM3.56798 6.1383C3.08237 6.19244 2.65805 6.41455 2.3397 6.78127C2.11071 7.04506 1.96253 7.37 1.9063 7.73167C1.89393 7.81125 1.89187 7.84956 1.89187 8.00047C1.89187 8.15139 1.89393 8.1897 1.9063 8.26927C1.96253 8.63095 2.11071 8.95589 2.3397 9.21968C2.66324 9.59237 3.09697 9.81623 3.58718 9.86352C3.69551 9.87397 3.9288 9.86748 4.03518 9.85105C4.24744 9.81827 4.45807 9.74985 4.54078 9.68681C4.59219 9.64764 4.6555 9.61486 4.71998 9.59404C4.82951 9.55866 5.0793 9.34554 5.2225 9.16527C5.40449 8.93619 5.53553 8.65423 5.59329 8.36745C5.63971 8.13699 5.63873 7.8532 5.59071 7.62184C5.55624 7.45576 5.51413 7.33506 5.43363 7.17167C5.33755 6.97667 5.23565 6.83494 5.07895 6.6784C4.9379 6.53749 4.79526 6.42959 4.71921 6.40627C4.65765 6.38739 4.59333 6.35418 4.54078 6.31414C4.45818 6.25118 4.24846 6.18301 4.03518 6.14979C3.9409 6.1351 3.65888 6.12817 3.56798 6.1383ZM12.096 10.8337C11.4963 10.8804 10.9504 11.218 10.6387 11.7349C10.3968 12.1361 10.3152 12.6135 10.4093 13.0782C10.4626 13.3415 10.5794 13.6004 10.7453 13.8232C10.8272 13.9331 11.0081 14.114 11.1181 14.1959C11.6894 14.6215 12.4442 14.6897 13.0784 14.3731C13.4606 14.1824 13.774 13.8557 13.9487 13.4662C14.0515 13.2368 14.1013 13.018 14.1097 12.7589C14.124 12.3188 13.9934 11.9131 13.7225 11.5557C13.6601 11.4733 13.468 11.2812 13.3856 11.2187C13.0921 10.9963 12.7619 10.8673 12.4064 10.8361C12.3351 10.8299 12.1626 10.8286 12.096 10.8337Z" fill="#3A3939"/>
</svg>
